<svg viewBox="0 0 512 512" xmlns="http://www.w3.org/2000/svg" xml:space="preserve" style="fill-rule:evenodd;clip-rule:evenodd;stroke-linejoin:round;stroke-miterlimit:2"><g id="base"><path d="m410.326 369.484 27.692-317.222c-2.6 27.471-83.096 49.518-182.018 49.518S76.582 79.733 73.982 52.262l27.692 317.222 148.443 46.392 160.209-46.392Z" style="fill:#707070;fill-rule:nonzero"/><path d="M101.674 369.484C39.912 383.956 0 406.899 0 432.73 0 476.51 114.615 512 256 512s256-35.49 256-79.27c0-25.831-39.912-48.774-101.674-63.246H101.674Z" style="fill:#4d4d4d;fill-rule:nonzero"/><ellipse cx="256" cy="50.89" rx="182.086" ry="50.89" style="fill:#5a5a5a"/><path d="M256 493.419c-131.233 0-239.383-30.578-254.241-69.979C.61 426.488 0 429.587 0 432.731 0 476.51 114.615 512 256 512s256-35.49 256-79.269c0-3.143-.61-6.242-1.759-9.29-14.857 39.4-123.008 69.978-254.241 69.978Z" style="fill:#707070;fill-rule:nonzero"/></g><g id="bottom"><path d="M256 376.225c-80.832 0-139.073-7.682-157.124-38.795l5.108 58.517c0 23.465 68.06 42.486 152.016 42.486 83.956 0 152.016-19.022 152.016-42.486l5.108-58.517c-9.616 21.864-76.292 38.795-157.124 38.795Z" style="fill:#91dc47;fill-rule:nonzero;stroke:#63aa32;stroke-width:1px" transform="matrix(1 0 0 1.18559 0 -81.37)"/><path d="M256 376.225c-80.832 0-147.508-16.931-157.124-38.795l1.39 16.022c19.073 20.369 71.778 35.981 155.734 35.981s135.915-17.055 155.899-34.843l1.225-17.16c-9.616 21.864-76.292 38.795-157.124 38.795Z" style="fill:#63aa32;fill-rule:nonzero;stroke:#63aa32;stroke-width:1px" transform="matrix(1 0 0 1.18559 0 -81.37)"/></g><g id="middle"><path d="M256 376.225c-80.832 0-147.508-16.931-157.124-38.795l5.108 58.517c0 23.465 68.06 42.486 152.016 42.486 83.956 0 152.016-19.022 152.016-42.486l5.108-58.517c-9.616 21.864-76.292 38.795-157.124 38.795Z" style="fill:#91dc47;fill-rule:nonzero;stroke:#63aa32;stroke-width:1px" transform="matrix(1.07658 0 0 1.327 -20.105 -262.982)"/><path d="M256 376.225c-80.832 0-147.508-16.931-157.124-38.795l1.39 16.022c19.073 20.369 71.778 35.981 155.734 35.981s135.915-17.055 155.899-34.843l1.225-17.16c-9.616 21.864-76.292 38.795-157.124 38.795Z" style="fill:#63aa32;fill-rule:nonzero;stroke:#63aa32;stroke-width:1px" transform="matrix(1.07539 0 0 1.33337 -19.987 -265.771)"/></g><g id="up"><path d="M255.997 372.105c-80.832 0-147.505-12.811-157.121-34.675l5.108 58.517c0 23.465 68.06 42.486 152.016 42.486 83.956 0 152.016-19.022 152.016-42.486l5.108-58.517c-9.616 21.864-76.295 34.675-157.127 34.675Z" style="fill:#91dc47;fill-rule:nonzero;stroke:#63aa32;stroke-width:1px" transform="matrix(1.1493 0 0 1.29704 -38.056 -378.908)"/><path d="M256 371.919c-80.832 0-147.508-12.625-157.124-34.489l1.39 16.022c19.073 20.369 71.537 32.841 155.493 32.841 83.956 0 136.156-13.915 156.14-31.703l1.225-17.16c-9.616 21.864-76.292 34.489-157.124 34.489Z" style="fill:#63aa32;fill-rule:nonzero;stroke:#63aa32;stroke-width:1px" transform="matrix(1.1493 0 0 1.29704 -38.056 -378.908)"/></g></svg>