<svg viewBox="0 0 383 383" xmlns="http://www.w3.org/2000/svg" xml:space="preserve" style="fill-rule:evenodd;clip-rule:evenodd;stroke-linecap:round;stroke-linejoin:round;stroke-miterlimit:1.5"><g transform="translate(-8.826 -8.826)"><circle cx="247.342" cy="238.037" r="152.658" style="fill:#7b7b7b" id="top" transform="matrix(.80243 0 0 .80243 1.526 8.993)"/><g id="cinta1"><path style="fill:#9fde4f;stroke:#72b137;stroke-width:1.39px" d="M90.581 147.084h238.54v70.405H90.581z" transform="rotate(45 198.437 135.505) scale(1.15732 1)" id="ancho"/><path style="fill:#72b137" d="M90.581 147.084h238.54v70.405H90.581z" transform="rotate(45 59.921 78.13) scale(1.15732 .21983)" id="sombra"/></g><g id="cinta2" transform="rotate(-90 196.773 200)"><path style="fill:#9fde4f;stroke:#72b137;stroke-width:1.85px" d="M90.581 147.084h238.54v70.405H90.581z" transform="rotate(45 198.437 135.505) scale(1.15732 1)" id="ancho1"/><path style="fill:#72b137" d="M90.581 147.084h238.54v70.405H90.581z" transform="rotate(45 59.921 78.13) scale(1.15732 .21983)" id="sombra1"/></g><circle cx="247.342" cy="238.037" r="152.658" style="fill:none;stroke:#575757;stroke-width:68.42px" id="base" transform="translate(-53.04 -43.52) scale(1.02304)"/></g></svg>