<svg viewBox="0 0 307 1312" xmlns="http://www.w3.org/2000/svg" xml:space="preserve" style="fill-rule:evenodd;clip-rule:evenodd;stroke-linecap:round;stroke-miterlimit:2"><g transform="translate(-249.759 -249.982)"><g id="List"><path id="Curva" d="M303.758 300.305c-1.929 67.624 29.042 133.976 95.79 199.015 131.461 142.645 138.891 275.77 2.328 399.602-135.341 132.018-136.078 266.138.194 402.448 62.855 69.42 96.324 136.96 97.718 202.63" style="fill:none;stroke:#000;stroke-width:5px;stroke-dasharray:15 15 0 0"/><g id="_1"><circle cx="401.587" cy="148.213" r="98.093" style="fill:#6c3" transform="matrix(.48042 0 0 .48042 106.093 225.904)"/><text x="307.669" y="127.318" style="fill:#fff;font-family:Helvetica;font-size:133.217px" transform="matrix(.48042 0 0 .48042 135.654 261.456)">1</text></g><g id="_2"><circle cx="401.587" cy="148.213" r="98.093" style="fill:#fff;stroke:#6c3;stroke-width:10.25px;stroke-linejoin:round;stroke-miterlimit:1.5" transform="matrix(.48788 0 0 .48788 302.256 629.415)"/><text x="307.669" y="127.318" style="font-family:Helvetica;font-size:131.18px" transform="matrix(.48788 0 0 .48788 329.677 662.21)">2</text></g><g id="_3"><circle cx="401.587" cy="148.213" r="98.093" style="fill:#6c3" transform="translate(93.338 1032.576) scale(.5154)"/><text x="307.669" y="127.318" style="fill:#fff;font-family:Helvetica;font-size:124.175px" transform="translate(124.833 1065.858) scale(.5154)">3</text></g><g id="_31"><circle cx="401.587" cy="148.213" r="98.093" style="fill:#fff;stroke:#6c3;stroke-width:9.25px;stroke-linejoin:round;stroke-miterlimit:1.5" transform="matrix(.54033 0 0 .54033 283.558 1425.79)"/><text x="307.669" y="127.318" style="font-family:Helvetica;font-size:118.447px" transform="matrix(.54033 0 0 .54033 315.434 1458.293)">4</text></g></g></g></svg>