<svg viewBox="0 0 512 512" xmlns="http://www.w3.org/2000/svg" xml:space="preserve" style="fill-rule:evenodd;clip-rule:evenodd;stroke-linecap:round;stroke-linejoin:round;stroke-miterlimit:1.5"><g id="base"><path d="m410.326 369.484 27.692-317.222c-2.6 27.471-83.096 49.518-182.018 49.518S76.582 79.733 73.982 52.262l27.692 317.222C39.912 383.956 0 406.899 0 432.73 0 476.51 114.615 512 256 512s256-35.49 256-79.27c0-25.831-39.912-48.774-101.674-63.246Z" style="fill:#838383;fill-rule:nonzero"/><ellipse cx="256" cy="50.89" rx="182.086" ry="50.89" style="fill:#5a5a5a"/><path d="M256 493.419c-131.233 0-239.383-30.578-254.241-69.979C.61 426.488 0 429.587 0 432.731 0 476.51 114.615 512 256 512s256-35.49 256-79.269c0-3.143-.61-6.242-1.759-9.29-14.857 39.4-123.008 69.978-254.241 69.978Z" style="fill:#707070;fill-rule:nonzero"/></g><path d="M95.859 332.742c71.802-4.225 136.061-34.918 166.238-89.247l-35.972-35.481c-46.744 53.016-69.082 62.023-132.81 71.82" style="fill:#91dc47;stroke:#63aa32;stroke-width:1px" transform="translate(9.747 63.864)"/><path d="M95.859 332.742c71.802-4.225 136.061-34.918 166.238-89.247l-7.241-6.99c-42.936 56.908-90.21 77.688-158.929 83.203" style="fill:#63aa32;stroke:#63aa32;stroke-width:1px" transform="translate(9.747 63.864)"/><path d="M408.089 398.469C289.878 367.461 183.177 264.65 83.001 148.264l-7.992-89.817c97.487 132.207 215.639 234.72 337.336 284.348l-4.256 55.674Z" style="fill:#91dc47;stroke:#63aa32;stroke-width:1px"/><path d="M362.933 448.225C243.597 418.466 141.258 316.963 41.082 200.577l-2.406-25.273c67.068 98.923 199.544 219.721 326.334 263.521l-2.077 9.4Z" style="fill:#63aa32;stroke:#63aa32;stroke-width:1px" transform="translate(41.825 -52.308)"/><path d="M256 376.225c-80.832 0-147.508-16.931-157.124-38.795l5.108 58.517c0 23.465 68.06 42.486 152.016 42.486 83.956 0 152.016-19.022 152.016-42.486l5.108-58.517c-9.616 21.864-76.292 38.795-157.124 38.795Z" style="fill:#91dc47;fill-rule:nonzero;stroke:#63aa32;stroke-width:1px;stroke-linecap:butt;stroke-miterlimit:2"/><path d="M256 376.225c-80.832 0-147.508-16.931-157.124-38.795l1.39 16.022c19.073 20.369 71.778 35.981 155.734 35.981s135.915-17.055 155.899-34.843l1.225-17.16c-9.616 21.864-76.292 38.795-157.124 38.795Z" style="fill:#63aa32;fill-rule:nonzero;stroke:#63aa32;stroke-width:1px;stroke-linecap:butt;stroke-miterlimit:2"/></svg>